<?xml version="1.0" encoding="UTF-8"?>
<svg version="1.1" viewBox="0 0 1024 1024" width="1024" height="1024" xmlns="http://www.w3.org/2000/svg">
<path transform="translate(145,444)" d="m0 0v3l-10 19-5 17-2 21 2 20 5 16 8 15 9 11 10 10 13 9 16 8 14 5 21 4 8 1h46l47-3h35l25 2 25 5 21 7 21 11 13 11 7 8 4 8-1 3-15-10-15-7-19-6-14-3-18-2h-50l-59 4-37 1-33-2-17-3-22-6-18-8-10-6-12-9-10-9-8-10-8-14-4-10-4-18v-29l4-17 5-12 9-14 11-12 9-7z" fill="#C03034"/>
<path transform="translate(309,382)" d="m0 0 4 2 12 5 16 6 6 4 5 8v10l-5 15 1 10 7 12 9 11 8 8 17 13 11 9 6 7 4 9-1 8-4 10-1 13-3 8-6 5-8-1-4-1h-13l-12 2h-13l-11-4-9-8-1-3 5 2 7 2h14l8-3 6-5 2-5v-6l-2-4-13-7-4-3h-5v8l4 8-9-1-6-7v-11l3-5 7-6 5-2h8l18 9 7 2 17 1-6-8-9-8-12-9-10-9-7-7-11-18-5-12 6-18v-7l-3-6-20-8-6-5-4-7z" fill="#C03034"/>
<path transform="translate(504,573)" d="m0 0h29l8 20 10 26 2 3 16-44 2-5h29v6l-6 3v24l1 29 1 7 7 4v5h-34v-5l7-4v-14l-2-37-8 22-13 34-2 4h-7l-4-9-18-48-2 13-2 22v13l7 3v6h-25l1-6 5-3 2-12 4-41-1-7-7-3z" fill="#C03034"/>
<path transform="translate(518,469)" d="m0 0h34v6l-6 3 1 9 8 25 2 7 4-10 12-36 2-4h10l16 52 2-3 12-36v-4l-6-3-1-1v-5h25v6l-5 3-6 14-13 38-6 19-1 1h-8l-5-12-13-37v-4h-2l-2 8-13 38-2 7h-8l-3-5-12-37-10-28-3-3-3-1z" fill="#C03034"/>
<path transform="translate(807,362)" d="m0 0h34v6l-7 2-1 27 5-1h21l4 1-1-24-2-3-5-2v-5l1-1h33l1 3-2 4-5 2-1 3v58l7 3v6h-34l-1-3 1-3 6-3 1-3 1-24h-30l1 27 7 3v6h-35v-5l6-3 1-1v-61l-7-3v-5z" fill="#C03034"/>
<path transform="translate(652,362)" d="m0 0h44l9 3 6 4 4 7 1 8-3 9-6 7-5 3h-2l12 17 9 12 6 4v5h-22l-7-9-15-23-4-1 1 23 3 3 5 2-1 5h-35v-6l7-2 1-2v-58l-3-3-5-2zm27 8v31h7l7-3 4-6v-12l-4-8-4-2z" fill="#C03034"/>
<path transform="translate(596,361)" d="m0 0h15l12 4 8 6 6 7 4 8 2 8v15l-2 9-5 10-8 8-12 6-11 2-13-1-10-4-9-7-6-9-3-8-1-5v-15l3-10 6-10 9-8 8-4zm1 9-8 7-4 9-2 14 1 14 3 10 6 8 6 3h9l8-5 5-9 2-11v-13l-3-14-5-8-5-4-2-1z" fill="#C03034"/>
<path transform="translate(473,362)" d="m0 0h25l14 18 15 20 7 9 2 3v-38l-4-4-4-2v-6h26v6l-6 3-1 3-1 67-4 1-8-1-26-34-12-16-3-3 1 43 1 2 7 3-1 5h-26l1-6 5-2 2-9v-44l-1-6-8-3-1-2z" fill="#C03034"/>
<path transform="translate(210,493)" d="m0 0 2 3 4 10 8 10 10 9 14 8 16 6 16 3 28 1 10 8 9 6 12 4h22l9-1h16l-2 4-9 6-10 4-3 1h-21l-16-5-15-6-5-1h-14l-17 4-12 5-14 8-14 11-4 3 2-6 6-11 8-10 10-9 7-4-23-11-10-8-10-10-8-16-2-7z" fill="#C03034"/>
<path transform="translate(694,468)" d="m0 0h4l1 20-1 1h-5l-5-9-5-2-16-1v28l13-1 8-8 3 1v16l-1 8h-5l-3-6-2-1-13-1 1 27h18l6-4 4-5 3-3 4 1v7l-3 13h-59v-6l7-3 1-6v-52l-1-4-7-3v-6z" fill="#C03034"/>
<path transform="translate(663,572)" d="m0 0h4l1 4v17h-5l-5-8-5-3-16-1 1 26h11l5-2 3-6h4l1 5-1 20h-5l-3-7-2-1h-13v22l2 4h16l6-3 6-8h5l-1 13-2 7h-58v-6l6-2 1-2v-58l-5-3-2-1v-6z" fill="#C03034"/>
<path transform="translate(713,573)" d="m0 0h12l5 12 15 41 6 15 4 3 3 1v5l-1 1h-34v-5l7-3-2-9-1-6-24 1-3 8v6l7 3-1 5h-25v-6l6-3 6-14 16-45zm1 21-9 25v1h19l-8-24z" fill="#C03034"/>
<path transform="translate(733,468)" d="m0 0h17l9 3 1 1v21h-6l-5-12-3-3-8-1-5 3-1 2v8l5 6 15 9 8 7 4 9v11l-3 8-7 7-6 3-5 1h-16l-9-3-4-2v-22h6l7 14 4 3 7 1 7-3 2-5-1-7-4-5-17-10-7-7-4-8v-10l3-8 4-5z" fill="#C03034"/>
<path transform="translate(772,468)" d="m0 0h67l1 10v14h-5l-7-12-2-1-12-1 1 63 8 2v6h-36v-6l7-3 1-2 1-60-12 1-4 4-4 8-5 1-1-1v-11l1-11z" fill="#C03034"/>
<path transform="translate(729,361)" d="m0 0h67l1 4 1 20h-6l-6-11-4-2-11-1 1 58 2 4 6 2v6h-36v-6l7-2 1-2 1-60-11 1-5 4-4 9h-6v-13l1-10z" fill="#C03034"/>
<path transform="translate(851,572)" d="m0 0h16l9 3 2 2v19h-6l-6-12-4-3h-7l-5 5 1 9 1 3 4 2 13 8 9 8 3 5 1 10-3 9-6 7-8 4-12 2-13-2-9-4v-16l1-6h6l4 11 5 6 2 1h11l3-3 1-2v-8l-4-5-18-11-8-9-2-7v-7l3-8 6-7z" fill="#C03034"/>
<path transform="translate(177,391)" d="m0 0h17l12 4 7 5 5 5 2 1 11 1-1 5-5 4h-9l-26-7h-10l-6 3-1 2v6l5 8 9 8 9 4 12 2 12-1-2 4-8 5-7 2h-9l-11-2-14-7-9-7-6-8-4-11 1-9 4-6 7-6z" fill="#C03034"/>
<path transform="translate(755,572)" d="m0 0h67l1 12v11h-6l-5-10-3-2-11-1 1 59 1 2 7 2v6h-35l-1-5 7-3 2-9v-53l-12 2-5 5-3 7h-6v-12z" fill="#C03034"/>
<path transform="translate(254,413)" d="m0 0h10l9 4 7 6 6 8 5 3 6 2-3 3-2 1h-9l-7-1-7 4h-8l-6-4-1-7 4-4 11-1-4-4-9-3h-13l5-5z" fill="#C03034"/>
</svg>
